solid OpenSCAD_Model
  facet normal -1 0 0
    outer loop
      vertex -10 -10 0
      vertex -10 -10 20
      vertex -10 10 0
    endloop
  endfacet
  facet normal -1 0 0
    outer loop
      vertex -10 10 0
      vertex -10 -10 20
      vertex -10 10 20
    endloop
  endfacet
  facet normal 0 -1 0
    outer loop
      vertex 0 -10 10
      vertex -10 -10 0
      vertex 10 -10 0
    endloop
  endfacet
  facet normal 0 -1 0
    outer loop
      vertex 0 -10 10
      vertex -10 -10 20
      vertex -10 -10 0
    endloop
  endfacet
  facet normal 0 -1 0
    outer loop
      vertex 2.92893 -10 10
      vertex 0 -10 10
      vertex 10 -10 2.92893
    endloop
  endfacet
  facet normal 0 -1 0
    outer loop
      vertex 10 -10 2.92893
      vertex 0 -10 10
      vertex 10 -10 0
    endloop
  endfacet
  facet normal 0 -1 0
    outer loop
      vertex 0 -10 10
      vertex 0 -10 20
      vertex -10 -10 20
    endloop
  endfacet
  facet normal 0 0 -1
    outer loop
      vertex -10 -10 0
      vertex -10 10 0
      vertex 10 -10 0
    endloop
  endfacet
  facet normal 0 0 -1
    outer loop
      vertex 10 -10 0
      vertex -10 10 0
      vertex 10 10 0
    endloop
  endfacet
  facet normal 0 1 0
    outer loop
      vertex -10 10 0
      vertex 0 10 10
      vertex 10 10 0
    endloop
  endfacet
  facet normal 0 1 0
    outer loop
      vertex 0 10 10
      vertex -10 10 20
      vertex 0 10 20
    endloop
  endfacet
  facet normal 0 1 0
    outer loop
      vertex -10 10 0
      vertex -10 10 20
      vertex 0 10 10
    endloop
  endfacet
  facet normal 0 1 0
    outer loop
      vertex 10 10 0
      vertex 0 10 10
      vertex 2.92893 10 10
    endloop
  endfacet
  facet normal 0 1 0
    outer loop
      vertex 10 10 2.92893
      vertex 10 10 0
      vertex 2.92893 10 10
    endloop
  endfacet
  facet normal 0 0 1
    outer loop
      vertex -10 10 20
      vertex -10 -10 20
      vertex 0 -10 20
    endloop
  endfacet
  facet normal 0 0 1
    outer loop
      vertex 0 10 20
      vertex -10 10 20
      vertex 0 -10 20
    endloop
  endfacet
  facet normal 1 0 0
    outer loop
      vertex 0 10 10
      vertex 0 10 20
      vertex 0 -10 20
    endloop
  endfacet
  facet normal 1 0 0
    outer loop
      vertex 0 -10 10
      vertex 0 10 10
      vertex 0 -10 20
    endloop
  endfacet
  facet normal 0 0 1
    outer loop
      vertex 2.92893 -10 10
      vertex 2.92893 10 10
      vertex 0 10 10
    endloop
  endfacet
  facet normal 0 0 1
    outer loop
      vertex 0 -10 10
      vertex 2.92893 -10 10
      vertex 0 10 10
    endloop
  endfacet
  facet normal 0.707107 0 0.707107
    outer loop
      vertex 10 -10 2.92893
      vertex 10 10 2.92893
      vertex 2.92893 10 10
    endloop
  endfacet
  facet normal 0.707107 0 0.707107
    outer loop
      vertex 2.92893 -10 10
      vertex 10 -10 2.92893
      vertex 2.92893 10 10
    endloop
  endfacet
  facet normal 1 0 0
    outer loop
      vertex 10 -10 2.92893
      vertex 10 -10 0
      vertex 10 10 0
    endloop
  endfacet
  facet normal 1 0 0
    outer loop
      vertex 10 10 2.92893
      vertex 10 -10 2.92893
      vertex 10 10 0
    endloop
  endfacet
endsolid OpenSCAD_Model
